<svg xmlns="http://www.w3.org/2000/svg" width="1600" height="900" viewBox="0 0 1600 900"><defs><radialGradient id="g" cx="25%" cy="20%"><stop offset="0" stop-color="#10b981" stop-opacity=".35"/><stop offset="1" stop-color="#030504" stop-opacity="0"/></radialGradient><linearGradient id="l" x1="0" x2="1"><stop stop-color="#0b0f0d"/><stop offset="1" stop-color="#020303"/></linearGradient></defs><rect width="1600" height="900" fill="url(#l)"/><rect width="1600" height="900" fill="url(#g)"/><g fill="none" stroke="#10b981" stroke-opacity=".16"><path d="M0 0V900"/><path d="M50 0V900"/><path d="M100 0V900"/><path d="M150 0V900"/><path d="M200 0V900"/><path d="M250 0V900"/><path d="M300 0V900"/><path d="M350 0V900"/><path d="M400 0V900"/><path d="M450 0V900"/><path d="M500 0V900"/><path d="M550 0V900"/><path d="M600 0V900"/><path d="M650 0V900"/><path d="M700 0V900"/><path d="M750 0V900"/><path d="M800 0V900"/><path d="M850 0V900"/><path d="M900 0V900"/><path d="M950 0V900"/><path d="M1000 0V900"/><path d="M1050 0V900"/><path d="M1100 0V900"/><path d="M1150 0V900"/><path d="M1200 0V900"/><path d="M1250 0V900"/><path d="M1300 0V900"/><path d="M1350 0V900"/><path d="M1400 0V900"/><path d="M1450 0V900"/><path d="M1500 0V900"/><path d="M1550 0V900"/><path d="M0 0H1600"/><path d="M0 50H1600"/><path d="M0 100H1600"/><path d="M0 150H1600"/><path d="M0 200H1600"/><path d="M0 250H1600"/><path d="M0 300H1600"/><path d="M0 350H1600"/><path d="M0 400H1600"/><path d="M0 450H1600"/><path d="M0 500H1600"/><path d="M0 550H1600"/><path d="M0 600H1600"/><path d="M0 650H1600"/><path d="M0 700H1600"/><path d="M0 750H1600"/><path d="M0 800H1600"/><path d="M0 850H1600"/></g><rect x="910" y="120" width="520" height="600" rx="32" fill="#030504" stroke="#34d399" stroke-opacity=".35"/><text x="140" y="185" fill="#a7f3d0" font-family="monospace" font-size="28" letter-spacing="8">SIG//AGENCY TERMINAL</text><text x="140" y="290" fill="#f8fafc" font-family="Arial, sans-serif" font-size="72" font-weight="700">Contribution made</text><text x="140" y="370" fill="#f8fafc" font-family="Arial, sans-serif" font-size="72" font-weight="700">legible.</text><text x="140" y="455" fill="#94a3b8" font-family="monospace" font-size="24">CLEARANCE MADE AUDITABLE</text><g font-family="monospace" font-size="22"><text x="960" y="190" fill="#34d399">SYSTEM:\EVIDENCE_LEDGER</text><text x="960" y="270" fill="#86efac">STATUS // CODE 200</text><text x="960" y="305" fill="#f8fafc">CONTRACT COMPLETED</text><text x="960" y="385" fill="#fbbf24">STATUS // PENDING</text><text x="960" y="420" fill="#f8fafc">INTEL ACQUISITION</text><text x="960" y="500" fill="#fca5a5">STATUS // CODE 403</text><text x="960" y="535" fill="#f8fafc">INSUFFICIENT EVIDENCE</text></g></svg>